<?xml version="1.0" encoding="utf-8"?>
<!-- Generator: Adobe Illustrator 27.9.0, SVG Export Plug-In . SVG Version: 6.00 Build 0)  -->
<svg version="1.1" id="katman_1" xmlns="http://www.w3.org/2000/svg" xmlns:xlink="http://www.w3.org/1999/xlink" x="0px" y="0px"
	 viewBox="0 0 200 61" style="enable-background:new 0 0 200 61;" xml:space="preserve">
<style type="text/css">
	.st0{fill:#252D5E;}
	.st1{fill:#C91E38;}
	.st2{fill:#20264B;}
</style>
<g transform="translate(0.000000,61.000000) scale(0.100000,-0.100000)">
	<path class="st0" d="M70.2,528l-35.5-48h106.6h106.6l-35.5-40.3c-122-143.1-46.1-330.5,168.1-412.1c60.5-23.1,74-17.3,22.1,8.6
		c-89.3,46.1-150.8,147-149.9,246.9c0,124.9,79.7,222.9,222.9,275.7c44.2,15.4,42.3,15.4-162.4,16.3l-207.5,1L70.2,528z"/>
	<path class="st1" d="M500.6,545.3C432.3,504,393,463.7,363.2,403.1c-22.1-45.2-25.9-65.3-25.9-134.5s3.8-89.3,25.9-134.5
		c14.4-28.8,41.3-68.2,60.5-86.5L458.3,14l-31.7,67.2c-29.8,63.4-31.7,73-30.7,168.1c0,88.4,2.9,107.6,25.9,156.6
		c13.4,30.7,50,80.7,79.7,112.4s52.8,57.6,50.9,56.7C550.5,575.1,527.5,561.7,500.6,545.3z"/>
</g>
<g>
	<path class="st2" d="M66.8,21.1h-6.9v21.2h-2.8V21.1h-6.8v-2.5h16.5V21.1z"/>
	<path class="st2" d="M88.9,42.4h-3.1l-2.5-6.7H73.2l-2.4,6.7h-3.1l9.1-23.7h2.9L88.9,42.4z M82.4,33.2l-3.7-10.1
		c-0.1-0.3-0.2-0.9-0.4-1.6h-0.1c-0.1,0.7-0.2,1.2-0.4,1.6l-3.7,10.1H82.4z"/>
	<path class="st2" d="M110,18.6l-8.8,23.7h-3.1l-8.6-23.7h3.1l6.6,18.8c0.2,0.6,0.4,1.3,0.5,2.1h0.1c0.1-0.7,0.3-1.4,0.5-2.1
		l6.7-18.8H110z"/>
	<path class="st2" d="M138.8,41.4c-1.8,0.9-3.9,1.4-6.6,1.4c-3.4,0-6.1-1.1-8.1-3.3c-2-2.2-3-5-3-8.6c0-3.8,1.1-6.9,3.4-9.2
		c2.3-2.3,5.2-3.5,8.7-3.5c2.3,0,4.1,0.3,5.6,1v3c-1.7-0.9-3.6-1.4-5.6-1.4c-2.7,0-4.9,0.9-6.6,2.7c-1.7,1.8-2.5,4.3-2.5,7.3
		c0,2.9,0.8,5.2,2.4,6.9c1.6,1.7,3.7,2.6,6.2,2.6c2.4,0,4.4-0.5,6.2-1.6V41.4z"/>
	<path class="st2" d="M162.1,42.4H159l-2.5-6.7h-10.1l-2.4,6.7h-3.1l9.1-23.7h2.9L162.1,42.4z M155.5,33.2l-3.7-10.1
		c-0.1-0.3-0.2-0.9-0.4-1.6h-0.1c-0.1,0.7-0.2,1.2-0.4,1.6l-3.7,10.1H155.5z"/>
	<path class="st2" d="M189.7,42.4H187V26.4c0-1.3,0.1-2.8,0.2-4.6h-0.1c-0.3,1.1-0.5,1.8-0.7,2.3l-8.1,18.2H177l-8.1-18.1
		c-0.2-0.5-0.5-1.3-0.7-2.4h-0.1c0.1,0.9,0.1,2.5,0.1,4.7v15.9h-2.7V18.6h3.7l7.3,16.5c0.6,1.3,0.9,2.2,1.1,2.8h0.1
		c0.5-1.3,0.9-2.3,1.1-2.9l7.4-16.5h3.5V42.4z"/>
</g>
</svg>
